HIERARCHY
ROOT Hips
{
 OFFSET 0.000000 0.000000 0.000000
 CHANNELS 6 Xposition Yposition Zposition Yrotation Xrotation Zrotation
 JOINT Chest
 {
  OFFSET 0.000000 9.585900 0.002600
  CHANNELS 3 Yrotation Xrotation Zrotation
  JOINT Chest2
  {
   OFFSET 0.000000 9.601200 -0.005300
   CHANNELS 3 Yrotation Xrotation Zrotation
   JOINT Chest3
   {
    OFFSET 0.000000 9.561800 0.000000
    CHANNELS 3 Yrotation Xrotation Zrotation
    JOINT Chest4
    {
     OFFSET 0.000000 9.552100 0.000000
     CHANNELS 3 Yrotation Xrotation Zrotation
     JOINT Neck
     {
      OFFSET 0.000000 14.453000 0.000000
      CHANNELS 3 Yrotation Xrotation Zrotation
      JOINT Head
      {
       OFFSET 0.000000 8.936500 -0.011300
       CHANNELS 3 Yrotation Xrotation Zrotation
       End Site
       {
        OFFSET 0.000000 17.073600 -0.006000
       }
      }
     }
     JOINT RightCollar
     {
      OFFSET -2.921100 9.558500 0.000000
      CHANNELS 3 Yrotation Xrotation Zrotation
      JOINT RightShoulder
      {
       OFFSET -13.519700 0.000000 0.000000
       CHANNELS 3 Yrotation Xrotation Zrotation
       JOINT RightElbow
       {
        OFFSET 0.000000 -29.696600 0.000000
        CHANNELS 3 Yrotation Xrotation Zrotation
        JOINT RightWrist
        {
         OFFSET 0.000000 -24.004700 0.000000
         CHANNELS 3 Yrotation Xrotation Zrotation
         End Site
         {
          OFFSET 0.000000 -17.728500 0.000000
         }
        }
       }
      }
     }
     JOINT LeftCollar
     {
      OFFSET 2.921100 9.558500 0.000000
      CHANNELS 3 Yrotation Xrotation Zrotation
      JOINT LeftShoulder
      {
       OFFSET 13.519700 0.000000 0.000000
       CHANNELS 3 Yrotation Xrotation Zrotation
       JOINT LeftElbow
       {
        OFFSET 0.000000 -29.696600 0.000000
        CHANNELS 3 Yrotation Xrotation Zrotation
        JOINT LeftWrist
        {
         OFFSET 0.000000 -24.004700 0.000000
         CHANNELS 3 Yrotation Xrotation Zrotation
         End Site
         {
          OFFSET 0.000000 -17.728500 0.000000
         }
        }
       }
      }
     }
    }
   }
  }
 }
 JOINT RightHip
 {
  OFFSET -7.771700 -0.012900 -0.001300
  CHANNELS 3 Yrotation Xrotation Zrotation
  JOINT RightKnee
  {
   OFFSET 0.000000 -40.869800 0.001200
   CHANNELS 3 Yrotation Xrotation Zrotation
   JOINT RightAnkle
   {
    OFFSET 0.000000 -39.717900 0.002100
    CHANNELS 3 Yrotation Xrotation Zrotation
    JOINT RightToe
    {
     OFFSET 0.000000 -4.965400 11.033500
     CHANNELS 3 Yrotation Xrotation Zrotation
     End Site
     {
      OFFSET 0.000000 -1.423100 5.872300
     }
    }
   }
  }
 }
 JOINT LeftHip
 {
  OFFSET 7.771700 -0.012900 -0.001300
  CHANNELS 3 Yrotation Xrotation Zrotation
  JOINT LeftKnee
  {
   OFFSET 0.000000 -40.869800 0.001200
   CHANNELS 3 Yrotation Xrotation Zrotation
   JOINT LeftAnkle
   {
    OFFSET 0.000000 -39.717900 0.002100
    CHANNELS 3 Yrotation Xrotation Zrotation
    JOINT LeftToe
    {
     OFFSET 0.000000 -4.965400 11.033500
     CHANNELS 3 Yrotation Xrotation Zrotation
     End Site
     {
      OFFSET 0.000000 -1.423100 5.872300
     }
    }
   }
  }
 }
}
MOTION
Frames: 13
Frame Time: 0.008333
-142.921990 51.641074 -59.540087 176.272995 -22.292528 0.501827 -1.647435 13.591787 0.736747 -0.153560 1.137950 0.118186 -0.244239 1.897445 0.179309 -1.563389 12.313583 1.148454 -1.655940 13.376167 -2.297981 -1.210344 -11.649223 -2.026659 1.754732 17.832468 10.263760 31.654079 -5.230201 -29.183790 75.123822 -72.652038 -106.098784 0.963553 9.305923 9.422949 1.746664 16.456887 -13.056825 -34.129769 -1.487976 28.101941 -7.864606 -75.086414 44.457946 12.379420 7.529142 -17.539922 -8.758601 -60.549726 3.767618 -63.972452 83.200744 -72.227711 -1.773249 -4.571461 8.080864 0.225313 -0.757953 0.121904 10.636893 -58.422220 -7.452169 33.379211 86.207955 39.247862 -3.484869 -12.988763 0.678802 0.099449 0.351651 0.039185
-142.924626 51.640074 -59.538531 176.251739 -22.225084 0.507919 -1.651847 13.584745 0.766983 -0.154790 1.139072 0.120269 -0.234116 1.867955 0.165067 -1.582373 12.348982 1.186860 -1.639728 13.244305 -2.332326 -1.185904 -11.784141 -2.066892 1.781022 17.825328 10.255310 31.665184 -5.240517 -29.219237 75.001206 -72.688460 -105.979078 0.967034 9.315457 9.415926 1.755647 16.434569 -13.064046 -34.134878 -1.480523 28.102013 -7.822805 -75.063161 44.457670 12.373024 7.536903 -17.523863 -8.756948 -60.615110 3.790577 -63.812849 83.204564 -72.070880 -1.775290 -4.529483 8.079336 0.222214 -0.753716 0.118881 10.669236 -58.486908 -7.472607 33.511243 86.201455 39.379415 -3.488391 -12.992501 0.679486 0.098650 0.352797 0.037035
-142.926494 51.639432 -59.538691 176.241157 -22.164039 0.509123 -1.662999 13.583496 0.798541 -0.156035 1.140068 0.122213 -0.257486 1.916787 0.196076 -1.564748 12.271560 1.150094 -1.630801 13.160682 -2.330811 -1.163565 -11.903684 -2.101083 1.805342 17.847345 10.282904 31.690972 -5.232344 -29.145812 75.042788 -72.582571 -106.057924 0.942696 9.352855 9.417914 1.759045 16.422823 -13.067210 -34.138967 -1.443320 28.118655 -7.783399 -75.034499 44.461549 12.364856 7.539510 -17.513061 -8.760808 -60.678156 3.809990 -63.688318 83.214601 -71.951196 -1.765936 -4.466222 8.079843 0.208280 -0.773398 0.116764 10.691670 -58.545468 -7.493721 33.599764 86.196394 39.474178 -3.491633 -12.996311 0.677224 0.107714 0.351847 0.039396
-142.930122 51.639115 -59.540792 176.223055 -22.109096 0.527630 -1.669791 13.586914 0.816733 -0.157112 1.140942 0.124044 -0.264971 1.933967 0.208437 -1.576808 12.274998 1.172567 -1.611183 13.039616 -2.371147 -1.141439 -12.010197 -2.131407 1.832148 17.821737 10.260067 31.702705 -5.235199 -29.118340 75.046402 -72.524085 -106.077438 0.918152 9.382061 9.420675 1.763263 16.365400 -13.119500 -34.143628 -1.407343 28.139556 -7.747002 -75.008379 44.469074 12.357486 7.542272 -17.501637 -8.723215 -60.735052 3.792113 -63.632301 83.218984 -71.895848 -1.761384 -4.438620 8.085035 0.202319 -0.771369 0.112516 10.734297 -58.594646 -7.530543 33.642526 86.199262 39.512698 -3.487609 -12.999840 0.681334 0.108506 0.348855 0.037627
-142.933515 51.638340 -59.542913 176.208960 -22.048378 0.546696 -1.679454 13.583184 0.834092 -0.158049 1.141703 0.125874 -0.256369 1.906082 0.191850 -1.596001 12.322872 1.224376 -1.596938 12.942867 -2.429137 -1.116303 -12.118025 -2.140388 1.854157 17.798189 10.235761 31.713122 -5.242960 -29.117666 74.956829 -72.532869 -105.989048 0.952236 9.348534 9.402518 1.761681 16.326529 -13.147326 -34.158539 -1.351645 28.187690 -7.569181 -75.030691 44.358984 12.392665 7.527937 -17.505378 -8.678346 -60.798664 3.766923 -63.592366 83.224444 -71.853988 -1.760638 -4.411105 8.090128 0.194330 -0.786338 0.113297 10.780670 -58.650818 -7.573827 33.702420 86.199503 39.568578 -3.487867 -12.997872 0.681620 0.109774 0.342304 0.039092
-142.934945 51.637797 -59.546687 176.197423 -21.992889 0.557683 -1.688893 13.582842 0.857183 -0.158920 1.142471 0.127801 -0.262966 1.922331 0.205481 -1.589844 12.279984 1.205476 -1.587810 12.897288 -2.440412 -1.089290 -12.209111 -2.146055 1.872405 17.816917 10.260981 31.729766 -5.244549 -29.122130 74.880481 -72.542645 -105.918333 0.982975 9.323188 9.384177 1.755748 16.331222 -13.125077 -34.167383 -1.349474 28.200793 -7.516175 -75.010024 44.347123 12.368064 7.544978 -17.486011 -8.641589 -60.858227 3.753124 -63.583880 83.230531 -71.839716 -1.760261 -4.367975 8.081274 0.191907 -0.791078 0.119395 10.815988 -58.703218 -7.607842 33.822296 86.202240 39.689261 -3.482125 -12.999756 0.678988 0.106712 0.336841 0.039362
-142.933053 51.637955 -59.553190 176.185757 -21.949972 0.554632 -1.694890 13.592953 0.892341 -0.159715 1.143274 0.129758 -0.269181 1.937740 0.218143 -1.583372 12.239519 1.188773 -1.559615 12.837467 -2.397316 -1.065883 -12.266472 -2.199013 1.890005 17.830798 10.285915 31.750133 -5.237127 -29.129315 74.726452 -72.607134 -105.747815 1.021742 9.288294 9.348285 1.754928 16.328528 -13.103179 -34.173932 -1.386272 28.179576 -7.581908 -74.952908 44.428995 12.342213 7.560178 -17.465909 -8.624482 -60.907013 3.766996 -63.563534 83.252425 -71.815594 -1.757538 -4.291552 8.050724 0.190734 -0.787480 0.133045 10.828161 -58.746055 -7.611264 33.926808 86.211787 39.796933 -3.470374 -13.009635 0.678463 0.100445 0.333528 0.037482
-142.932381 51.637453 -59.559191 176.174736 -21.896982 0.563930 -1.698868 13.578067 0.907864 -0.155833 1.131291 0.123332 -0.278163 1.963900 0.237462 -1.591832 12.245904 1.209912 -1.531207 12.768240 -2.404299 -1.040486 -12.327121 -2.229503 1.909550 17.812260 10.276234 31.768781 -5.225245 -29.138383 74.644863 -72.633949 -105.659115 1.026977 9.286014 9.331557 1.757998 16.296147 -13.111552 -34.190879 -1.338893 28.217906 -7.424046 -74.978851 44.321094 12.372349 7.554279 -17.460747 -8.586634 -60.962830 3.761379 -63.508568 83.285731 -71.758353 -1.792983 -4.249368 8.043021 0.200047 -0.787096 0.136275 10.863935 -58.795947 -7.641298 34.015160 86.217629 39.887275 -3.466278 -13.013780 0.677551 0.097984 0.328402 0.037947
-142.929727 51.637894 -59.568535 176.158639 -21.859934 0.571015 -1.687894 13.553572 0.914278 -0.172287 1.180534 0.155647 -0.275156 1.952566 0.232366 -1.609645 12.288255 1.265539 -1.504412 12.675027 -2.457327 -1.014115 -12.380493 -2.247064 1.926624 17.758251 10.225612 31.787024 -5.212032 -29.148668 74.608445 -72.627292 -105.630697 1.009748 9.304410 9.329447 1.760592 16.232097 -13.158474 -34.204782 -1.324144 28.243043 -7.353918 -74.982161 44.273467 12.406116 7.553812 -17.446238 -8.548038 -60.999449 3.761977 -63.555840 83.291704 -71.797686 -1.818595 -4.218687 8.038550 0.230578 -0.776796 0.129079 10.893638 -58.829903 -7.657791 34.128496 86.231065 40.004081 -3.459396 -13.024729 0.679415 0.091888 0.323741 0.036249
-142.926971 51.638086 -59.578402 176.154971 -21.820239 0.580103 -1.700225 13.562472 0.936484 -0.179291 1.190812 0.160595 -0.272539 1.941322 0.226612 -1.616407 12.303877 1.295050 -1.489902 12.612893 -2.500429 -0.983803 -12.415768 -2.242160 1.946405 17.730240 10.204922 31.802136 -5.203114 -29.158163 74.608426 -72.594764 -105.653571 0.979104 9.330699 9.366395 1.759373 16.200439 -13.172733 -34.210986 -1.325512 28.260501 -7.259190 -75.007281 44.193823 12.372707 7.571833 -17.414562 -8.512643 -61.041177 3.757116 -63.524939 83.345505 -71.770285 -1.869614 -4.185431 8.019726 0.239429 -0.777457 0.139471 10.926643 -58.866434 -7.690585 34.226008 86.243688 40.107605 -3.456613 -13.031898 0.680784 0.088845 0.317094 0.033932
-142.922242 51.638397 -59.589757 176.152835 -21.785076 0.584768 -1.735327 13.614765 0.974782 -0.162100 1.145985 0.136421 -0.273075 1.942163 0.229161 -1.610897 12.284135 1.289620 -1.477635 12.593463 -2.503065 -0.957170 -12.434786 -2.235229 1.970922 17.738771 10.223221 31.800888 -5.206372 -29.186308 74.504992 -72.652409 -105.497168 0.995659 9.308222 9.338951 1.759656 16.205115 -13.146794 -34.215708 -1.349623 28.256344 -7.256772 -75.009655 44.194596 12.331735 7.578476 -17.391109 -8.485340 -61.074790 3.764230 -63.479683 83.410093 -71.729932 -1.933978 -4.164963 7.993809 0.250971 -0.772634 0.153351 10.946497 -58.899550 -7.710291 34.332198 86.258230 40.219210 -3.449911 -13.043119 0.677291 0.087745 0.312319 0.034267
-142.914649 51.637829 -59.600183 176.135302 -21.739667 0.584851 -1.735166 13.607096 1.002207 -0.162275 1.146308 0.137889 -0.273317 1.942553 0.231725 -1.606515 12.268360 1.282354 -1.459131 12.587668 -2.485120 -0.950015 -12.454909 -2.259003 1.996176 17.744029 10.237792 31.797083 -5.210510 -29.208394 74.473773 -72.661861 -105.444894 0.980051 9.309097 9.356900 1.757842 16.210060 -13.119073 -34.222162 -1.332840 28.285201 -7.403279 -75.000901 44.353436 12.381212 7.598012 -17.364325 -8.462984 -61.116528 3.794672 -63.444235 83.466410 -71.695893 -1.951391 -4.153808 7.904276 0.225812 -0.767463 0.221154 10.969013 -58.946214 -7.713082 34.519801 86.274488 40.413222 -3.448555 -13.056788 0.674895 0.087992 0.307757 0.033246
-142.907684 51.638666 -59.615800 176.101851 -21.722600 0.603217 -1.714156 13.607719 1.006634 -0.166794 1.154418 0.145215 -0.273268 1.942619 0.233774 -1.619076 12.311255 1.348701 -1.442067 12.537745 -2.537771 -0.943818 -12.475256 -2.282968 1.999766 17.690544 10.156065 31.809162 -5.204295 -29.183415 74.471088 -72.636534 -105.445189 0.947756 9.322057 9.410187 1.744429 16.172942 -13.108921 -34.232658 -1.352101 28.268476 -7.477547 -75.013369 44.448195 12.396323 7.607153 -17.349391 -8.409364 -61.128597 3.792210 -63.360705 83.539188 -71.614548 -2.008102 -4.160403 7.892120 0.234136 -0.751096 0.204706 11.015376 -58.959207 -7.729564 34.751892 86.298244 40.651391 -3.436668 -13.078315 0.673707 0.082069 0.298999 0.029344
